<?xml version="1.0" standalone="no"?>
<!DOCTYPE svg PUBLIC "-//W3C//DTD SVG 20010904//EN"
 "http://www.w3.org/TR/2001/REC-SVG-20010904/DTD/svg10.dtd">
<svg version="1.0" xmlns="http://www.w3.org/2000/svg"
 width="64.000000pt" height="64.000000pt" viewBox="0 0 64.000000 64.000000"
 preserveAspectRatio="xMidYMid meet">

<g transform="translate(0.000000,64.000000) scale(0.100000,-0.100000)"
fill="#000000" stroke="none">
<path d="M0 320 l0 -320 320 0 320 0 0 320 0 320 -320 0 -320 0 0 -320z m408
234 c145 -60 188 -244 85 -364 -38 -45 -54 -51 -45 -18 4 17 2 20 -11 15 -15
-5 -17 2 -17 53 l0 60 -100 0 -100 0 0 -60 c0 -51 -2 -58 -17 -53 -13 5 -15 2
-11 -15 9 -33 -7 -26 -46 20 -128 149 -24 377 172 378 29 0 69 -7 90 -16z
m-24 -342 c0 -26 -7 -48 -15 -53 -23 -14 -86 -10 -103 7 -16 16 -22 75 -9 88
4 4 34 6 68 4 l60 -3 -1 -43z m-44 -122 c0 -13 -7 -20 -20 -20 -13 0 -20 7
-20 20 0 13 7 20 20 20 13 0 20 -7 20 -20z"/>
</g>
</svg>
